<svg xmlns="http://www.w3.org/2000/svg" xmlns:xlink="http://www.w3.org/1999/xlink" width="35" height="35" viewBox="0 0 35 35">

  <g id="penguin-2" data-name="penguin" style="isolation: isolate">
    <g data-type="innerShadowGroup">
      <path id="penguin-3" data-name="penguin" d="M30,9.075A15.415,15.415,0,0,0,27.45,6.164a14.837,14.837,0,0,0-3.615-2.378A15.04,15.04,0,0,0,18.31,2.378a14.129,14.129,0,0,0-2.016.021,14.731,14.731,0,0,0-1.536.192A15.121,15.121,0,0,0,6.185,7.316a14.476,14.476,0,0,0-2.314,3.338,15,15,0,0,0-1.29,3.6,16.3,16.3,0,0,0-.352,2.773,14.882,14.882,0,0,0,.053,1.824,13.341,13.341,0,0,0,.3,1.941,15.129,15.129,0,0,0,3.285,6.6,1.716,1.716,0,0,0,.363.373,7.884,7.884,0,0,0,3.679,1.365A6.547,6.547,0,0,0,12,29a6.915,6.915,0,0,0,3.775-2.41,8.21,8.21,0,0,0,1.92-5.865,8,8,0,0,0-.555-2.5,16.4,16.4,0,0,1-.576-1.578,8.725,8.725,0,0,1-.363-1.962,7.715,7.715,0,0,1,.053-1.568,5.748,5.748,0,0,1,.821-2.229,5.644,5.644,0,0,1,2.719-2.207,7.472,7.472,0,0,1,3.455-.48,8.992,8.992,0,0,1,2.261.48,11.033,11.033,0,0,1,3.9,2.367,14.169,14.169,0,0,1,2.826,3.679c.032.053.053.1.1.16a.415.415,0,0,0-.011-.171A15.252,15.252,0,0,0,30,9.075Zm-13.65,6.953a8.826,8.826,0,0,0,.48,1.536c.011.032.032.064.043.1.043.117.021.139-.107.128-.48-.021-.949-.032-1.429-.053-.565-.032-1.141-.053-1.717-.075-.405-.011-.821-.043-1.226-.064-.032,0-.075.011-.107-.043a.259.259,0,0,1,.149-.1c1.216-.512,2.431-1.024,3.658-1.536.011,0,.021-.011.032-.011C16.306,15.836,16.306,15.836,16.348,16.028ZM17.5,0A17.5,17.5,0,1,0,35,17.5,17.5,17.5,0,0,0,17.5,0ZM32.867,22.16a15.576,15.576,0,0,1-2.8,5.385,15.74,15.74,0,0,1-2.378,2.389,15.546,15.546,0,0,1-3.306,2.112.219.219,0,0,1-.181.053c-.032-.064,0-.117.011-.171a7.86,7.86,0,0,0,.117-1.941,16.35,16.35,0,0,0-.3-2.154,4.634,4.634,0,0,0-.352-1.066c-.213-.437-.405-.885-.64-1.322a23.418,23.418,0,0,0-1.7-2.623c-.885-1.216-1.856-2.378-2.826-3.53-.011-.021-.032-.032-.085-.075.075.405.149.778.181,1.152a10.2,10.2,0,0,1,.032,1.141,8.614,8.614,0,0,1-.149,1.386,9.515,9.515,0,0,1-1.024,2.869,8.987,8.987,0,0,1-1.45,1.962,7.812,7.812,0,0,1-4.436,2.314,7.171,7.171,0,0,1-2.239-.021,9.556,9.556,0,0,1-2.3-.619,7.241,7.241,0,0,1-1.1-.587,1.38,1.38,0,0,1-.288-.267,16,16,0,0,1-3.978-7.593,15.219,15.219,0,0,1-.32-2.186c-.032-.352-.043-.715-.053-1.066a17.221,17.221,0,0,1,.117-2.1,16.453,16.453,0,0,1,.853-3.573A15.678,15.678,0,0,1,5.034,7.241,16.214,16.214,0,0,1,8.553,4.1a15.989,15.989,0,0,1,5.823-2.367,17.208,17.208,0,0,1,2.09-.256c.544-.032,1.1-.043,1.642-.021a16.648,16.648,0,0,1,2.719.352,16.073,16.073,0,0,1,4.33,1.621,15.463,15.463,0,0,1,2.762,1.93,16.072,16.072,0,0,1,5.321,9.267,16.813,16.813,0,0,1,.235,1.952c.032.544.043,1.088.021,1.621A17.381,17.381,0,0,1,32.867,22.16Zm-10.5-9.214a1.317,1.317,0,1,1-1.3-1.322A1.289,1.289,0,0,1,22.363,12.946Z" fill="#7baaff"/>
      <g transform="matrix(1, 0, 0, 1, 0, 0)" filter="url(#penguin)">
        <path id="penguin-4" data-name="penguin" d="M30,9.075A15.415,15.415,0,0,0,27.45,6.164a14.837,14.837,0,0,0-3.615-2.378A15.04,15.04,0,0,0,18.31,2.378a14.129,14.129,0,0,0-2.016.021,14.731,14.731,0,0,0-1.536.192A15.121,15.121,0,0,0,6.185,7.316a14.476,14.476,0,0,0-2.314,3.338,15,15,0,0,0-1.29,3.6,16.3,16.3,0,0,0-.352,2.773,14.882,14.882,0,0,0,.053,1.824,13.341,13.341,0,0,0,.3,1.941,15.129,15.129,0,0,0,3.285,6.6,1.716,1.716,0,0,0,.363.373,7.884,7.884,0,0,0,3.679,1.365A6.547,6.547,0,0,0,12,29a6.915,6.915,0,0,0,3.775-2.41,8.21,8.21,0,0,0,1.92-5.865,8,8,0,0,0-.555-2.5,16.4,16.4,0,0,1-.576-1.578,8.725,8.725,0,0,1-.363-1.962,7.715,7.715,0,0,1,.053-1.568,5.748,5.748,0,0,1,.821-2.229,5.644,5.644,0,0,1,2.719-2.207,7.472,7.472,0,0,1,3.455-.48,8.992,8.992,0,0,1,2.261.48,11.033,11.033,0,0,1,3.9,2.367,14.169,14.169,0,0,1,2.826,3.679c.032.053.053.1.1.16a.415.415,0,0,0-.011-.171A15.252,15.252,0,0,0,30,9.075Zm-13.65,6.953a8.826,8.826,0,0,0,.48,1.536c.011.032.032.064.043.1.043.117.021.139-.107.128-.48-.021-.949-.032-1.429-.053-.565-.032-1.141-.053-1.717-.075-.405-.011-.821-.043-1.226-.064-.032,0-.075.011-.107-.043a.259.259,0,0,1,.149-.1c1.216-.512,2.431-1.024,3.658-1.536.011,0,.021-.011.032-.011C16.306,15.836,16.306,15.836,16.348,16.028ZM17.5,0A17.5,17.5,0,1,0,35,17.5,17.5,17.5,0,0,0,17.5,0ZM32.867,22.16a15.576,15.576,0,0,1-2.8,5.385,15.74,15.74,0,0,1-2.378,2.389,15.546,15.546,0,0,1-3.306,2.112.219.219,0,0,1-.181.053c-.032-.064,0-.117.011-.171a7.86,7.86,0,0,0,.117-1.941,16.35,16.35,0,0,0-.3-2.154,4.634,4.634,0,0,0-.352-1.066c-.213-.437-.405-.885-.64-1.322a23.418,23.418,0,0,0-1.7-2.623c-.885-1.216-1.856-2.378-2.826-3.53-.011-.021-.032-.032-.085-.075.075.405.149.778.181,1.152a10.2,10.2,0,0,1,.032,1.141,8.614,8.614,0,0,1-.149,1.386,9.515,9.515,0,0,1-1.024,2.869,8.987,8.987,0,0,1-1.45,1.962,7.812,7.812,0,0,1-4.436,2.314,7.171,7.171,0,0,1-2.239-.021,9.556,9.556,0,0,1-2.3-.619,7.241,7.241,0,0,1-1.1-.587,1.38,1.38,0,0,1-.288-.267,16,16,0,0,1-3.978-7.593,15.219,15.219,0,0,1-.32-2.186c-.032-.352-.043-.715-.053-1.066a17.221,17.221,0,0,1,.117-2.1,16.453,16.453,0,0,1,.853-3.573A15.678,15.678,0,0,1,5.034,7.241,16.214,16.214,0,0,1,8.553,4.1a15.989,15.989,0,0,1,5.823-2.367,17.208,17.208,0,0,1,2.09-.256c.544-.032,1.1-.043,1.642-.021a16.648,16.648,0,0,1,2.719.352,16.073,16.073,0,0,1,4.33,1.621,15.463,15.463,0,0,1,2.762,1.93,16.072,16.072,0,0,1,5.321,9.267,16.813,16.813,0,0,1,.235,1.952c.032.544.043,1.088.021,1.621A17.381,17.381,0,0,1,32.867,22.16Zm-10.5-9.214a1.317,1.317,0,1,1-1.3-1.322A1.289,1.289,0,0,1,22.363,12.946Z" fill="#fff"/>
      </g>
    </g>
  </g>
</svg>
